<svg width="37" height="128" viewBox="0 0 37 128" fill="none" xmlns="http://www.w3.org/2000/svg">
<path d="M0.304688 33.457L0.304688 27.3926C0.304688 23.7598 0.773438 14.6484 1.71094 0.0585938H2.41406V3.92578H3.11719V0.585938H3.82031C4.99219 3.86719 7.10156 12.0703 10.1484 25.1953H10.5V22.4707C10.5 19.6582 10.6172 14.5605 10.8516 7.17773C11.3203 7.17773 11.5547 6.62109 11.5547 5.50781H12.2578C15.3047 15.9961 16.8281 21.4746 16.8281 21.9434H17.5313L17.1797 16.4941V15.9668H17.8828C18.3516 18.6621 18.5859 20.3027 18.5859 20.8887H18.9375V18.1641L18.5859 15.3516H19.2891C27.8438 39.9023 32.6484 61.084 33.7031 78.8965C35.5781 101.572 36.5156 115.254 36.5156 119.941L35.8125 122.139C36.0469 122.842 36.1641 123.369 36.1641 123.721L33.3516 125.918L32.6484 125.391C31.2422 126.855 30.1875 127.588 29.4844 127.588C27.1406 124.541 25.9688 122.52 25.9688 121.523V120.996L24.9141 122.139C22.1016 120.908 20.6953 119.795 20.6953 118.799C19.9336 119.561 19.2305 119.941 18.5859 119.941V118.271H17.8828L16.8281 119.414C15.8906 118.887 14.7188 117.041 13.3125 113.877C12.3164 113.877 10.9102 106.758 9.09375 92.5195L1.71094 47.6953C0.773437 40.4883 0.304688 35.7422 0.304688 33.457Z" fill="white"/>
</svg>
