<svg width="38" height="129" viewBox="0 0 38 129" fill="none" xmlns="http://www.w3.org/2000/svg">
<path d="M37.1953 95.043V101.107C37.1953 104.74 36.7266 113.852 35.7891 128.441H35.0859V124.574H34.3828V127.914H33.6797C32.5078 124.633 30.3984 116.43 27.3516 103.305H27V106.029C27 108.842 26.8828 113.939 26.6484 121.322C26.1797 121.322 25.9453 121.879 25.9453 122.992H25.2422C22.1953 112.504 20.6719 107.025 20.6719 106.557H19.9688L20.3203 112.006V112.533H19.6172C19.1484 109.838 18.9141 108.197 18.9141 107.611H18.5625V110.336L18.9141 113.148H18.2109C9.65625 88.5977 4.85156 67.416 3.79688 49.6035C1.92188 26.9277 0.984375 13.2461 0.984375 8.55859L1.6875 6.36133C1.45312 5.6582 1.33594 5.13086 1.33594 4.7793L4.14844 2.58203L4.85156 3.10938C6.25781 1.64453 7.3125 0.912109 8.01562 0.912109C10.3594 3.95898 11.5312 5.98047 11.5312 6.97656V7.50391L12.5859 6.36133C15.3984 7.5918 16.8047 8.70508 16.8047 9.70117C17.5664 8.93945 18.2695 8.55859 18.9141 8.55859V10.2285H19.6172L20.6719 9.08594C21.6094 9.61328 22.7812 11.459 24.1875 14.623C25.1836 14.623 26.5898 21.7422 28.4062 35.9805L35.7891 80.8047C36.7266 88.0117 37.1953 92.7578 37.1953 95.043Z" fill="white"/>
</svg>
