<svg width="162" height="153" fill="none" xmlns="http://www.w3.org/2000/svg"><path d="M152.922.043h.879l-2.637 2.11h.527l1.934-1.055h.879l-.088.351c-1.758 2.52-3.398 4.512-4.922 5.977l-.088.351c1.641 0 4.6.235 8.877.703l-.176.704h-3.515l-.088.703h3.076l-.088.703c-3.398 1.406-8.554 2.93-15.469 4.57-2.871 3.985-11.66 10.547-26.367 19.688L100.803 46.8v.351c29.941-8.203 48.164-12.304 54.668-12.304h1.318c2.695 0 4.043.937 4.043 2.812 0 .235-.029.469-.088.703.235 0 .352.147.352.44v.263c-.235 1.348-3.985 4.278-11.25 8.79-3.282 1.699-12.393 8.378-27.334 20.038-11.66 11.016-36.914 30.47-75.762 58.36-13.242 8.379-19.893 12.715-19.951 13.008l-.176 1.054h-.879l.088-.703c-14.648 8.438-22.91 12.657-24.785 12.657.058-.176 1.758-1.348 5.098-3.516h-.528c-2.402 1.406-3.984 2.109-4.746 2.109v-.351c.059-.41 2.05-2.52 5.977-6.328-2.227 0-3.457-.704-3.692-2.11-1.347-.644-2.021-1.113-2.021-1.406 1.23-.352 1.875-.703 1.933-1.055l.088-.351H2.19l.176-.703c1.64 0 2.871-1.172 3.692-3.516.879 0 2.548-1.172 5.01-3.516a260.156 260.156 0 0 1-.264-11.25c0-6.504.322-11.894.966-16.172-.175-.351-.263-.644-.263-.878v-.176h.44v-.088c0-.176-.118-.264-.352-.264l.703-2.109c2.93-18.516 7.91-36.914 14.941-55.196v-.087c0-.176-.117-.264-.351-.264l3.867-10.547c-2.402-.352-4.16-1.406-5.274-3.164 0-.234-.087-.586-.263-1.055.762-1.523 1.523-2.578 2.285-3.164-.645-1.289-.967-2.08-.967-2.373v-.088c.059-.293 1.817-2.05 5.274-5.273.234-1.465 4.16-2.754 11.777-3.867 1.289-4.336 3.076-8.086 5.361-11.25l2.197.351h.44c.117-.937.469-1.406 1.055-1.406h2.285c.351 0 1.406.938 3.164 2.813.937 1.171 1.728 1.757 2.373 1.757v.088c0 .41.352.967 1.055 1.67-.352.469-.557.82-.616 1.055.41 0 .791.351 1.143 1.055l-.264 1.757c7.383-.879 17.637-1.582 30.762-2.109l-.088.703c-.351 0-2.021.234-5.01.703l-.087.352h1.318c14.765-2.344 31.172-4.219 49.219-5.625L152.922.043ZM49.299 52.865c7.558-4.453 18.545-9.96 32.959-16.523l13.008-5.889c-10.957 1.582-24.141 3.164-39.551 4.746-1.348 2.285-3.487 8.174-6.416 17.666ZM45.08 77.387l-6.152 27.773c-.352 0-.528.117-.528.352l.791.351c12.13-12.129 27.95-25.488 47.461-40.078.938 0 1.934-.586 2.989-1.758h-.44L45.695 76.332c-.41.469-.615.82-.615 1.055Z" fill="#000"/></svg>